PathFileType	4	(X/Y/Z)	Run_400 02
DataRate	CameraRate	NumFrames	NumMarkers	Units	OrigDataRate	OrigDataStartFrame	OrigNumFrames
100	100	7	42	mm	100	87	128
Frame#	Time	LASI			RASI			LPSI			RPSI			RTH1			RTH2			RTH3			LTH1			LTH2			LTH3			RTB1			RTB2			RTB3			LTB1			LTB2			LTB3			RCAL			RTOE			RMT5			LCAL			LTOE			LMT5			LACR			RACR			CLAV			C7			RUA1			RUA2			RUA3			RLEL			RMEL			LUA1			LUA2			LUA3			LLEL			LMEL			RFAsuperior			RFAradius			RFAulna			LFAsuperior			LFAradius			LFAulna			
		X1	Y1	Z1	X2	Y2	Z2	X3	Y3	Z3	X4	Y4	Z4	X5	Y5	Z5	X6	Y6	Z6	X7	Y7	Z7	X8	Y8	Z8	X9	Y9	Z9	X10	Y10	Z10	X11	Y11	Z11	X12	Y12	Z12	X13	Y13	Z13	X14	Y14	Z14	X15	Y15	Z15	X16	Y16	Z16	X17	Y17	Z17	X18	Y18	Z18	X19	Y19	Z19	X20	Y20	Z20	X21	Y21	Z21	X22	Y22	Z22	X23	Y23	Z23	X24	Y24	Z24	X25	Y25	Z25	X26	Y26	Z26	X27	Y27	Z27	X28	Y28	Z28	X29	Y29	Z29	X30	Y30	Z30	X31	Y31	Z31	X32	Y32	Z32	X33	Y33	Z33	X34	Y34	Z34	X35	Y35	Z35	X36	Y36	Z36	X37	Y37	Z37	X38	Y38	Z38	X39	Y39	Z39	X40	Y40	Z40	X41	Y41	Z41	X42	Y42	Z42	

79	1.55	923.044381	928.10792	-444.997987	914.876216	954.456026	-210.106274	758.083119	985.228789	-380.549047	745.5364939999999	992.17819	-285.735214	912.911717	727.634834	-147.656101	1006.201729	679.740552	-164.239426	993.547567	574.4798489999999	-187.046016	861.050166	729.7368289999999	-487.988248	895.9845	617.703797	-481.330319	825.947948	523.186009	-469.275568	1057.827923	377.574663	-274.989556	998.119287	281.02042	-231.910744	1018.117002	199.034521	-315.254248	719.104503	399.935497	-409.716496	705.586014	426.971707	-442.929181	528.733476	444.305158	-396.302595	894.771442	108.36063	-340.821637	1116.4043	67.945457	-338.069454	1058.921788	51.290891	-239.432523	447.839803	554.655968	-364.990025	334.454408	369.654093	-396.347626	330.67078	438.407732	-482.033453	927.730349	1430.94144	-475.062889	911.3183289999999	1419.968078	-175.773337	1006.298843	1350.569	-303.007527	867.441445	1452.692146	-322.086796	822.135106	1348.19541	-80.10026000000001	743.4297759999999	1321.993492	-122.723801	733.935375	1259.08143	-52.468816	674.600419	1218.495461	-31.548432	652.290029	1206.36858	-105.352992	875.436188	1326.497533	-570.332328	814.9170789999999	1267.450384	-557.66754	865.439182	1235.83223	-623.0196529999999	843.518855	1158.601158	-660.080211	804.919864	1129.085939	-602.342381	758.443256	1137.68586	-24.660139	859.505308	1065.978898	-90.654455	808.679067	1020.30504	-71.522369	949.779393	1155.595185	-603.3605679999999	1033.220329	1117.572786	-490.775923	1047.353128	1077.713344	-542.591877	
80	1.56	921.297927	922.222535	-441.843873	908.282222	954.394406	-205.770281	754.262711	979.329236	-381.106111	740.561112	986.786883	-289.252321	909.953016	725.88386	-148.104428	1002.034813	678.598087	-165.224018	988.7956809999999	571.468316	-187.102643	870.845238	725.086287	-487.383571	911.9033429999999	615.561042	-479.836448	848.609212	517.420391	-469.097199	1041.747746	370.456135	-274.812272	981.033066	279.854472	-234.20163	987.600505	195.621496	-313.351405	747.011836	396.797852	-407.151099	727.962625	431.168085	-442.246685	557.666616	443.486292	-395.634629	855.577047	109.112116	-339.37262	1077.226006	68.49166	-336.868348	1019.190915	51.558749	-237.999473	477.001676	556.142523	-367.196706	363.273618	371.304019	-397.803486	363.683141	437.528168	-485.437366	925.960066	1425.661458	-476.707058	910.163854	1414.419745	-175.938045	1005.267958	1345.305781	-304.438308	868.60937	1449.506955	-322.020431	828.246969	1333.903782	-77.985258	747.474688	1305.939818	-116.065831	744.7767239999999	1242.777669	-45.894914	689.012961	1199.863117	-21.966511	662.753781	1185.788126	-93.973985	869.5767489999999	1322.479434	-570.175775	807.251512	1263.937621	-553.627263	854.1316409999999	1232.589293	-622.58881	828.9866	1156.506809	-658.9704819999999	791.391106	1127.845429	-600.657383	776.033044	1121.969458	-19.414389	875.9142859999999	1052.855729	-87.438002	826.536839	1005.561054	-65.823538	936.455901	1148.697273	-605.24186	1020.925404	1101.9649	-497.619908	1030.612324	1064.430719	-551.545677	
81	1.57	918.9360339999999	917.691468	-439.646439	902.694534	954.273338	-201.971965	750.936185	975.186522	-381.752242	736.961651	982.561766	-291.580712	905.750436	722.348868	-148.86385	993.933005	671.104226	-166.650298	977.174702	564.323712	-189.273598	879.547595	721.992965	-487.175001	929.404895	615.632555	-477.913529	873.322119	514.2404780000001	-468.283479	1021.868778	360.644312	-274.323175	962.088263	278.77372	-236.396857	954.317585	189.007151	-310.981594	776.97315	395.520255	-403.851659	750.473707	435.893049	-441.703586	588.671525	441.640706	-395.083201	817.486632	109.416519	-338.548926	1039.160502	67.74219600000001	-336.05965	980.697692	50.760843	-237.329262	505.4924	555.6878830000001	-370.321001	394.924835	368.699027	-397.974737	398.722879	431.112829	-488.476232	925.5558600000001	1421.01539	-478.154288	908.760356	1409.779968	-177.039759	1003.992978	1340.533088	-305.750004	868.955999	1446.438732	-324.306662	833.9657089999999	1321.605351	-77.867869	751.697818	1290.747532	-110.141813	757.05948	1228.197554	-39.886273	705.675866	1182.306372	-12.75842	674.942334	1166.064636	-82.20956	864.990491	1319.82873	-570.670146	800.9354970000001	1263.172593	-549.38203	843.449939	1230.833913	-621.2413299999999	814.811414	1155.630794	-657.058105	777.981374	1128.197674	-597.82946	796.048671	1107.959295	-15.205671	894.34393	1040.698282	-85.112453	846.496834	992.346357	-60.653278	923.338137	1143.005493	-606.672986	1006.926865	1088.501222	-504.044319	1012.942577	1053.783908	-559.631849	
82	1.58	915.983687	914.874986	-438.924195	898.19913	952.6629349999999	-200.081276	748.126053	972.7859570000001	-382.502071	733.768603	980.131744	-291.970541	899.240496	717.326675	-149.852049	982.945332	659.496131	-168.21823	961.357252	555.166193	-192.561449	886.843966	720.611686	-487.255541	947.619943	618.400905	-475.8118	899.417283	514.0727000000001	-466.965858	999.441143	351.19977	-275.263749	940.5976899999999	277.09083	-238.400873	919.723424	182.396068	-311.601265	808.407636	396.372767	-400.153993	773.041708	441.040907	-441.316448	620.5994480000001	439.313636	-394.589538	780.473057	109.627428	-338.661398	1002.217685	66.38736299999999	-336.388226	943.4888089999999	50.376528	-237.659916	532.2969849999999	553.1968000000001	-373.952366	428.963247	361.781493	-397.458357	434.868172	420.238559	-491.035513	925.543589	1417.486048	-479.51639	907.753019	1406.030625	-178.28574	1002.641772	1336.465121	-306.944963	867.5407290000001	1443.477315	-327.39283	838.298495	1312.425739	-79.202269	756.244916	1276.836018	-104.882391	770.302737	1215.785501	-34.544101	723.84254	1166.846533	-4.232218	688.975769	1148.350957	-70.653526	860.88199	1318.196351	-571.560961	795.557185	1264.557874	-545.812769	833.4096	1230.22336	-619.3122980000001	801.105754	1155.945581	-654.488036	765.1045769999999	1129.905048	-594.0439730000001	817.292823	1096.261996	-11.661584	914.313324	1030.776605	-84.151096	868.527763	981.77419	-56.628902	910.769213	1138.098742	-607.978205	992.7749710000001	1077.500206	-510.015412	995.2897809999999	1045.742424	-567.130732	
83	1.59	912.517641	913.92839	-439.561554	894.591723	949.602861	-200.195235	745.67452	972.021177	-383.249725	730.335286	979.5679730000001	-290.49848	890.391839	712.185883	-151.028843	970.703204	648.151732	-169.827296	944.5951700000001	546.621584	-195.646652	893.161468	721.146514	-487.232639	965.307369	624.637054	-473.692103	925.696284	517.599725	-465.228034	975.207802	344.025009	-277.597366	916.172104	274.655304	-240.061586	885.513141	178.151617	-314.676974	840.702937	399.484237	-396.319884	795.596583	446.485615	-441.093942	652.141986	436.788249	-393.770188	744.136606	110.052097	-339.191306	965.874061	65.56729900000001	-337.292072	907.00256	50.80335	-238.269795	556.7685760000001	548.426427	-377.686812	465.060139	350.809185	-396.959362	471.276201	406.07885	-493.035959	924.9608449999999	1415.446203	-480.725967	907.431873	1403.359461	-179.176766	1001.158681	1333.602844	-308.129551	864.878078	1441.417738	-329.18442	841.136706	1306.895098	-80.796817	761.747148	1264.625011	-100.410429	783.980799	1206.036643	-29.877988	742.595762	1154.420282	3.288136	704.760012	1133.68941	-60.240112	856.505198	1317.588268	-572.358398	790.242982	1267.191196	-543.4200970000001	823.855422	1230.596337	-617.212026	787.894757	1157.542054	-651.544345	753.102493	1132.727827	-589.921344	838.619087	1087.485109	-8.579051	935.110811	1024.689867	-84.790813	892.015718	975.048288	-54.134685	898.669688	1134.080039	-609.056925	979.536839	1068.801871	-515.90891	978.389755	1039.877802	-574.581003	
84	1.6	908.7489409999999	914.725196	-441.0644	891.585048	946.322005	-201.596105	743.390481	972.720227	-383.875751	727.199888	980.590512	-288.147342	879.730955	708.244161	-152.281517	958.037998	640.186569	-171.29054	928.14499	540.3523290000001	-197.543617	899.17735	723.757152	-486.765898	981.414094	634.502847	-471.647014	950.863164	525.141015	-463.078896	949.440336	338.852846	-279.898248	889.056392	271.841823	-241.243976	852.596032	176.290191	-317.250296	873.209085	404.857786	-392.552858	818.070676	452.084566	-441.029055	682.656868	433.847516	-392.684401	708.3280099999999	110.871039	-339.672224	929.912069	65.42115	-337.994778	870.86515	51.480211	-238.524492	579.038768	540.956864	-381.165853	502.940644	336.432386	-396.871947	507.405091	389.540369	-494.438815	923.444981	1414.942903	-481.665187	907.617898	1402.077407	-179.725142	999.469614	1332.344014	-309.399795	862.358762	1440.95719	-329.025888	843.678729	1304.635411	-81.58230500000001	768.811303	1254.732195	-97.04576900000001	797.737257	1199.434864	-25.945701	761.285559	1145.626377	9.540347000000001	721.757616	1122.691938	-51.673154	851.4858379999999	1318.306133	-572.712762	784.335479	1270.667331	-541.881363	814.630028	1232.151295	-615.232468	775.219455	1160.59713	-648.624519	741.820272	1136.701772	-586.0839	859.580834	1082.467622	-6.265198	956.07663	1023.813647	-86.943568	916.200505	973.0643710000001	-53.476731	886.745041	1131.580069	-609.6054779999999	967.0991289999999	1061.930772	-521.651699	962.19938	1035.752782	-581.926683	
85	1.61	905.019414	917.024829	-442.88994	889.017564	944.153151	-203.471007	741.161641	974.651583	-384.389415	725.342896	982.936418	-286.21529	868.196286	706.054135	-153.46024	945.116743	635.851088	-172.627113	911.353522	536.599481	-198.136066	905.260375	728.59552	-485.876134	995.509221	647.30156	-469.746018	974.0500520000001	536.2884769999999	-460.509962	922.359159	334.441903	-281.181478	860.141973	269.250127	-241.956725	820.590736	175.537249	-317.660178	905.253978	412.390878	-388.983699	840.39559	457.680708	-441.094356	712.463352	429.958074	-391.990561	673.100289	112.10223	-340.154136	894.377637	65.465037	-338.279515	835.039507	51.893127	-238.399833	599.858224	530.392514	-384.141923	542.390139	319.511573	-397.067024	543.249387	371.130107	-495.250776	921.1492919999999	1415.773336	-482.353349	907.945839	1402.506139	-180.171924	997.711122	1332.750907	-310.764051	860.860283	1442.088528	-328.074443	847.792564	1304.670225	-81.22762299999999	777.427669	1248.031709	-94.770754	811.386193	1196.177743	-22.889866	779.599775	1140.593087	14.378816	739.09249	1115.396633	-45.054642	845.778144	1320.6122	-572.586621	777.822712	1275.184173	-540.353441	805.605769	1235.271396	-613.552987	763.0423039999999	1165.28302	-646.073364	730.73013	1142.142402	-582.763106	880.183718	1081.98682	-5.328765	976.659904	1028.684273	-90.351451	940.52842	976.091644	-55.031355	874.736187	1131.266933	-609.681232	954.636785	1056.593093	-526.345172	946.051928	1033.318124	-588.3080639999999	
